<mxfile host="65bd71144e">
    <diagram id="1cSmCzB6ThMVFXuAjtor" name="Page-1">
        <mxGraphModel dx="562" dy="1892" grid="1" gridSize="10" guides="1" tooltips="1" connect="1" arrows="1" fold="1" page="1" pageScale="1" pageWidth="850" pageHeight="1100" math="0" shadow="0">
            <root>
                <mxCell id="0"/>
                <mxCell id="1" parent="0"/>
                <mxCell id="2" value="" style="strokeWidth=1;shadow=0;dashed=0;align=center;html=1;shape=mxgraph.mockup.containers.browserWindow;rSize=0;strokeColor2=#008cff;strokeColor3=#c4c4c4;mainText=,;recursiveResize=0;fillColor=none;" parent="1" vertex="1">
                    <mxGeometry x="80" y="-80" width="840" height="750" as="geometry"/>
                </mxCell>
                <mxCell id="3" value="Page 1" style="strokeWidth=1;shadow=0;dashed=0;align=center;html=1;shape=mxgraph.mockup.containers.anchor;fontSize=17;fontColor=#666666;align=left;" parent="2" vertex="1">
                    <mxGeometry x="60" y="12" width="110" height="26" as="geometry"/>
                </mxCell>
                <mxCell id="4" value="https://www.draw.io" style="strokeWidth=1;shadow=0;dashed=0;align=center;html=1;shape=mxgraph.mockup.containers.anchor;rSize=0;fontSize=17;fontColor=#666666;align=left;" parent="2" vertex="1">
                    <mxGeometry x="130" y="60" width="250" height="26" as="geometry"/>
                </mxCell>
                <mxCell id="6" value="&lt;h1&gt;&lt;font color=&quot;#f9f6f6&quot; face=&quot;Times New Roman&quot;&gt;The Netball club&lt;/font&gt;&lt;/h1&gt;" style="rounded=0;whiteSpace=wrap;html=1;" parent="2" vertex="1">
                    <mxGeometry x="10" y="120" width="790" height="90" as="geometry"/>
                </mxCell>
                <mxCell id="9" value="&lt;h3&gt;&lt;font style=&quot;font-size: 22px;&quot;&gt;- Mixed A&lt;br&gt;&lt;/font&gt;&lt;font style=&quot;font-size: 22px;&quot;&gt;- Sinior A&lt;br&gt;&lt;/font&gt;&lt;font style=&quot;font-size: 22px;&quot;&gt;- Juinor A&lt;/font&gt;&lt;/h3&gt;" style="rounded=0;whiteSpace=wrap;html=1;" parent="2" vertex="1">
                    <mxGeometry x="10" y="460" width="540" height="150" as="geometry"/>
                </mxCell>
                <mxCell id="11" value="&lt;div style=&quot;line-height: 154%;&quot;&gt;&lt;font color=&quot;#fafafa&quot; face=&quot;Times New Roman&quot; style=&quot;font-size: 17px; background-color: rgb(24, 20, 29);&quot;&gt;Netball is a ball sport played on a rectangular court by two teams of seven players. The primary objective is to shoot a ball through the defender's goal ring while preventing the opposing team from shooting through their own goal ring&lt;/font&gt;&lt;br&gt;&lt;/div&gt;" style="rounded=0;whiteSpace=wrap;html=1;" parent="2" vertex="1">
                    <mxGeometry x="370" y="340" width="430" height="110" as="geometry"/>
                </mxCell>
                <mxCell id="12" value="&lt;font style=&quot;font-size: 18px;&quot;&gt;&lt;font style=&quot;font-size: 18px;&quot;&gt;&amp;nbsp;Netball season is starting&amp;nbsp;&lt;br&gt;&lt;/font&gt;&lt;br&gt;&lt;font style=&quot;font-size: 18px;&quot;&gt;Sign up today&amp;nbsp;&lt;br&gt;&lt;/font&gt;&lt;br&gt;&lt;/font&gt;" style="rounded=0;whiteSpace=wrap;html=1;" parent="2" vertex="1">
                    <mxGeometry x="370" y="220" width="430" height="110" as="geometry"/>
                </mxCell>
                <mxCell id="13" value="LOCATION: BRUCE PULMAN&amp;nbsp;&lt;br&gt;&amp;nbsp;Contact number: 0272772414" style="rounded=0;whiteSpace=wrap;html=1;" parent="2" vertex="1">
                    <mxGeometry x="10" y="620" width="780" height="110" as="geometry"/>
                </mxCell>
                <mxCell id="16" value="" style="shape=image;imageAspect=0;aspect=fixed;verticalLabelPosition=bottom;verticalAlign=top;image=https://media.istockphoto.com/id/186931510/photo/netball-uniform.jpg?b=1&amp;s=170667a&amp;w=0&amp;k=20&amp;c=XuFtb4HVerqQvESA8jweG9Q3Pl3gf0FxE1NiZlWTVqU=;" parent="2" vertex="1">
                    <mxGeometry x="10" y="210" width="362.49" height="240" as="geometry"/>
                </mxCell>
                <mxCell id="kTtSJKAHXHI7iXLp6GMU-17" value="" style="shape=image;imageAspect=0;aspect=fixed;verticalLabelPosition=bottom;verticalAlign=top;labelBackgroundColor=#18141d;fontFamily=Times New Roman;fontSize=18;fontColor=#f4f5f4;image=https://media.istockphoto.com/id/498031385/photo/netball-season.jpg?b=1&amp;s=170667a&amp;w=0&amp;k=20&amp;c=6gRJbK-0pOq5WqVLbe34d1JWaT-Be1yhOd1vM5Ild3g=;" parent="2" vertex="1">
                    <mxGeometry x="550" y="455" width="244.04" height="160" as="geometry"/>
                </mxCell>
                <UserObject label="https://github.com/ASDAH-Digtal/website-lilietablo.git" link="https://github.com/ASDAH-Digtal/website-lilietablo.git" id="17">
                    <mxCell style="text;whiteSpace=wrap;html=1;" parent="2" vertex="1">
                        <mxGeometry x="365" y="100" width="310" height="40" as="geometry"/>
                    </mxCell>
                </UserObject>
                <mxCell id="21" value="" style="endArrow=none;html=1;entryX=0;entryY=0.25;entryDx=0;entryDy=0;exitX=0.462;exitY=1;exitDx=0;exitDy=0;exitPerimeter=0;" parent="2" source="13" target="17" edge="1">
                    <mxGeometry width="50" height="50" relative="1" as="geometry">
                        <mxPoint x="380" y="320" as="sourcePoint"/>
                        <mxPoint x="430" y="270" as="targetPoint"/>
                    </mxGeometry>
                </mxCell>
                <mxCell id="22" value="" style="endArrow=none;html=1;exitX=0.701;exitY=1.018;exitDx=0;exitDy=0;exitPerimeter=0;entryX=0.581;entryY=0.5;entryDx=0;entryDy=0;entryPerimeter=0;" parent="2" source="13" target="17" edge="1">
                    <mxGeometry width="50" height="50" relative="1" as="geometry">
                        <mxPoint x="540" y="730" as="sourcePoint"/>
                        <mxPoint x="525" y="120" as="targetPoint"/>
                    </mxGeometry>
                </mxCell>
            </root>
        </mxGraphModel>
    </diagram>
    <diagram id="i8dXSgGG371kfD4aj6Sn" name="Page-2">
        <mxGraphModel dx="562" dy="792" grid="1" gridSize="10" guides="1" tooltips="1" connect="1" arrows="1" fold="1" page="1" pageScale="1" pageWidth="850" pageHeight="1100" math="0" shadow="0">
            <root>
                <mxCell id="0"/>
                <mxCell id="1" parent="0"/>
                <mxCell id="BbA56S-hzsuUCv2lI8x8-1" value="" style="strokeWidth=1;shadow=0;dashed=0;align=center;html=1;shape=mxgraph.mockup.containers.browserWindow;rSize=0;strokeColor2=#008cff;strokeColor3=#c4c4c4;mainText=,;recursiveResize=0;fillColor=none;" parent="1" vertex="1">
                    <mxGeometry x="65" y="80" width="720" height="680" as="geometry"/>
                </mxCell>
                <mxCell id="BbA56S-hzsuUCv2lI8x8-2" value="Page 1" style="strokeWidth=1;shadow=0;dashed=0;align=center;html=1;shape=mxgraph.mockup.containers.anchor;fontSize=17;fontColor=#666666;align=left;" parent="BbA56S-hzsuUCv2lI8x8-1" vertex="1">
                    <mxGeometry x="60" y="12" width="110" height="26" as="geometry"/>
                </mxCell>
                <mxCell id="BbA56S-hzsuUCv2lI8x8-3" value="https://www.draw.io" style="strokeWidth=1;shadow=0;dashed=0;align=center;html=1;shape=mxgraph.mockup.containers.anchor;rSize=0;fontSize=17;fontColor=#666666;align=left;" parent="BbA56S-hzsuUCv2lI8x8-1" vertex="1">
                    <mxGeometry x="130" y="60" width="250" height="26" as="geometry"/>
                </mxCell>
                <mxCell id="BbA56S-hzsuUCv2lI8x8-4" value="Mixed A" style="rounded=0;whiteSpace=wrap;html=1;" parent="BbA56S-hzsuUCv2lI8x8-1" vertex="1">
                    <mxGeometry x="10" y="120" width="690" height="100" as="geometry"/>
                </mxCell>
                <mxCell id="BbA56S-hzsuUCv2lI8x8-5" value="&lt;h4&gt;&lt;span style=&quot;font-weight: normal;&quot;&gt;&lt;span style=&quot;font-family: &amp;quot;Google Sans&amp;quot;, arial, sans-serif; font-size: 16px; text-align: start; background-color: rgb(42, 37, 47);&quot;&gt;&lt;font style=&quot;&quot; color=&quot;#ffffff&quot;&gt;&amp;nbsp;Each Mixed teams, have a maximum of two male players on the court at any one time is permitted. Outdoor Netball Match Length. 2 x 10-minute halves with a 1-minute half time break.&lt;/font&gt;&lt;/span&gt;&lt;/span&gt;&lt;/h4&gt;" style="rounded=0;whiteSpace=wrap;html=1;" parent="BbA56S-hzsuUCv2lI8x8-1" vertex="1">
                    <mxGeometry x="425" y="230" width="275" height="270" as="geometry"/>
                </mxCell>
                <mxCell id="BbA56S-hzsuUCv2lI8x8-7" value="Asdahs mixeds teams play at 5:10 at bruce pulman" style="rounded=0;whiteSpace=wrap;html=1;" parent="BbA56S-hzsuUCv2lI8x8-1" vertex="1">
                    <mxGeometry x="10" y="510" width="340" height="160" as="geometry"/>
                </mxCell>
                <mxCell id="BbA56S-hzsuUCv2lI8x8-8" value="Every wednesday" style="rounded=0;whiteSpace=wrap;html=1;" parent="BbA56S-hzsuUCv2lI8x8-1" vertex="1">
                    <mxGeometry x="350" y="510" width="360" height="160" as="geometry"/>
                </mxCell>
                <mxCell id="waKiWPXSdQyq9GCwg8bi-1" value="" style="shape=image;imageAspect=0;aspect=fixed;verticalLabelPosition=bottom;verticalAlign=top;image=https://media.istockphoto.com/id/1163901509/photo/netball-team-bonding.jpg?b=1&amp;s=612x612&amp;w=0&amp;k=20&amp;c=KBbdvmG1WkJQQR42tInBHzpvijLA0y4aOa2rOv-S2cc=;" parent="BbA56S-hzsuUCv2lI8x8-1" vertex="1">
                    <mxGeometry x="10" y="230" width="404.62" height="270" as="geometry"/>
                </mxCell>
                <mxCell id="qrzfaM33aDpkIgdcEFLA-1" value="" style="endArrow=none;html=1;entryX=0.584;entryY=-0.02;entryDx=0;entryDy=0;exitX=0.581;exitY=1.001;exitDx=0;exitDy=0;exitPerimeter=0;entryPerimeter=0;" parent="BbA56S-hzsuUCv2lI8x8-1" source="BbA56S-hzsuUCv2lI8x8-1" target="BbA56S-hzsuUCv2lI8x8-4" edge="1">
                    <mxGeometry width="50" height="50" relative="1" as="geometry">
                        <mxPoint x="385" y="340" as="sourcePoint"/>
                        <mxPoint x="435" y="290" as="targetPoint"/>
                    </mxGeometry>
                </mxCell>
            </root>
        </mxGraphModel>
    </diagram>
    <diagram id="fKXDO9JActxKgOkhPbfz" name="Page-3">
        <mxGraphModel dx="662" dy="1892" grid="1" gridSize="10" guides="1" tooltips="1" connect="1" arrows="1" fold="1" page="1" pageScale="1" pageWidth="850" pageHeight="1100" math="0" shadow="0">
            <root>
                <mxCell id="0"/>
                <mxCell id="1" parent="0"/>
                <mxCell id="lAt6sWYfAWxqthmQp3h8-1" value="" style="strokeWidth=1;shadow=0;dashed=0;align=center;html=1;shape=mxgraph.mockup.containers.browserWindow;rSize=0;strokeColor2=#008cff;strokeColor3=#c4c4c4;mainText=,;recursiveResize=0;fillColor=none;" parent="1" vertex="1">
                    <mxGeometry x="50" y="-40" width="720" height="720" as="geometry"/>
                </mxCell>
                <mxCell id="lAt6sWYfAWxqthmQp3h8-2" value="Page 1" style="strokeWidth=1;shadow=0;dashed=0;align=center;html=1;shape=mxgraph.mockup.containers.anchor;fontSize=17;fontColor=#666666;align=left;" parent="lAt6sWYfAWxqthmQp3h8-1" vertex="1">
                    <mxGeometry x="60" y="12" width="110" height="26" as="geometry"/>
                </mxCell>
                <mxCell id="lAt6sWYfAWxqthmQp3h8-3" value="https://www.draw.io" style="strokeWidth=1;shadow=0;dashed=0;align=center;html=1;shape=mxgraph.mockup.containers.anchor;rSize=0;fontSize=17;fontColor=#666666;align=left;" parent="lAt6sWYfAWxqthmQp3h8-1" vertex="1">
                    <mxGeometry x="130" y="60" width="250" height="26" as="geometry"/>
                </mxCell>
                <mxCell id="PwjabI_pzOMSJWpkH5s5-6" value="Senior A" style="rounded=0;whiteSpace=wrap;html=1;fontSize=22;" parent="lAt6sWYfAWxqthmQp3h8-1" vertex="1">
                    <mxGeometry x="10" y="120" width="700" height="100" as="geometry"/>
                </mxCell>
                <mxCell id="PwjabI_pzOMSJWpkH5s5-5" value="Senior A is a team of 7 women on court&amp;nbsp;&lt;br&gt;&lt;br&gt;&lt;br&gt;Playing agaisnt other senior A teams.&lt;br&gt;&lt;br&gt;&lt;br&gt;&lt;br&gt;&lt;br&gt;&lt;br&gt;&lt;br&gt;" style="rounded=0;whiteSpace=wrap;html=1;fontSize=22;" parent="lAt6sWYfAWxqthmQp3h8-1" vertex="1">
                    <mxGeometry x="10" y="230" width="240" height="360" as="geometry"/>
                </mxCell>
                <mxCell id="PwjabI_pzOMSJWpkH5s5-4" value="Asdah senior A team play's at 5:10 at bruce pullman" style="rounded=0;whiteSpace=wrap;html=1;fontSize=22;" parent="lAt6sWYfAWxqthmQp3h8-1" vertex="1">
                    <mxGeometry x="10" y="600" width="240" height="110" as="geometry"/>
                </mxCell>
                <mxCell id="PwjabI_pzOMSJWpkH5s5-3" value="Every wednesday" style="rounded=0;whiteSpace=wrap;html=1;fontSize=22;" parent="lAt6sWYfAWxqthmQp3h8-1" vertex="1">
                    <mxGeometry x="260" y="550" width="440" height="160" as="geometry"/>
                </mxCell>
                <mxCell id="k53DSJ0BZ9IA5Y4yIjM3-1" value="" style="shape=image;imageAspect=0;aspect=fixed;verticalLabelPosition=bottom;verticalAlign=top;labelBackgroundColor=#18141d;fontColor=#FFFFFF;image=https://media.istockphoto.com/id/1163901355/photo/netball-team-warming-up.jpg?s=2048x2048&amp;w=is&amp;k=20&amp;c=7qUNu0A-LOQJGOkl5iddzPLCZVnWMZKsKjgq3HldsD8=;" parent="lAt6sWYfAWxqthmQp3h8-1" vertex="1">
                    <mxGeometry x="260" y="240" width="449.56" height="300" as="geometry"/>
                </mxCell>
            </root>
        </mxGraphModel>
    </diagram>
    <diagram id="1n0Iqw_FYF7EKAkJ2Sk8" name="Page-4">
        <mxGraphModel dx="662" dy="792" grid="1" gridSize="10" guides="1" tooltips="1" connect="1" arrows="1" fold="1" page="1" pageScale="1" pageWidth="850" pageHeight="1100" math="0" shadow="0">
            <root>
                <mxCell id="0"/>
                <mxCell id="1" parent="0"/>
                <mxCell id="YTwkcchTf7SlPm7RMm-H-1" value="" style="strokeWidth=1;shadow=0;dashed=0;align=center;html=1;shape=mxgraph.mockup.containers.browserWindow;rSize=0;strokeColor2=#008cff;strokeColor3=#c4c4c4;mainText=,;recursiveResize=0;fillColor=none;" parent="1" vertex="1">
                    <mxGeometry x="30" y="40" width="685" height="660" as="geometry"/>
                </mxCell>
                <mxCell id="YTwkcchTf7SlPm7RMm-H-2" value="Page 1" style="strokeWidth=1;shadow=0;dashed=0;align=center;html=1;shape=mxgraph.mockup.containers.anchor;fontSize=17;fontColor=#666666;align=left;" parent="YTwkcchTf7SlPm7RMm-H-1" vertex="1">
                    <mxGeometry x="60" y="12" width="110" height="26" as="geometry"/>
                </mxCell>
                <mxCell id="YTwkcchTf7SlPm7RMm-H-3" value="https://www.draw.io" style="strokeWidth=1;shadow=0;dashed=0;align=center;html=1;shape=mxgraph.mockup.containers.anchor;rSize=0;fontSize=17;fontColor=#666666;align=left;" parent="YTwkcchTf7SlPm7RMm-H-1" vertex="1">
                    <mxGeometry x="130" y="60" width="250" height="26" as="geometry"/>
                </mxCell>
                <mxCell id="fdL7gJHC5HV_B39lF4Zr-1" value="Juinor A" style="rounded=0;whiteSpace=wrap;html=1;fontSize=22;" parent="YTwkcchTf7SlPm7RMm-H-1" vertex="1">
                    <mxGeometry x="10" y="120" width="350" height="70" as="geometry"/>
                </mxCell>
                <mxCell id="fdL7gJHC5HV_B39lF4Zr-2" value="" style="rounded=0;whiteSpace=wrap;html=1;fontSize=22;" parent="YTwkcchTf7SlPm7RMm-H-1" vertex="1">
                    <mxGeometry x="370" y="120" width="300" height="530" as="geometry"/>
                </mxCell>
                <mxCell id="fdL7gJHC5HV_B39lF4Zr-3" value="" style="rounded=0;whiteSpace=wrap;html=1;fontSize=22;" parent="YTwkcchTf7SlPm7RMm-H-1" vertex="1">
                    <mxGeometry x="10" y="580" width="350" height="70" as="geometry"/>
                </mxCell>
            </root>
        </mxGraphModel>
    </diagram>
</mxfile>